# xmcd CD database file
#
# Track frame offsets:
#	150
#	18526
#	36596
#	62512
#	86182
#	98250
#	113634
#	126807
#	139673
#	157453
#	178066
#	200490
#	223039
#	240824
#	258158
#	276106
#	294821
#
# Disc length: 4145 seconds
#
# Revision: 0
# Processed by: cddbd v1.4PL0 Copyright (c) Steve Scherf et al.
# Submitted via: CDex 1.50beta9
#
DISCID=f0102f11
DTITLE=Art Farmer - Soft Shoe
DYEAR=1900
DGENRE=Jazz
TTITLE0=The Little Bandmaster
TTITLE1=Up In Quincy's Room
TTITLE2=Work of Art
TTITLE3=Mau Mau
TTITLE4=Evening in Paris
TTITLE5=Elephant Walk
TTITLE6=Wildwood
TTITLE7=Tiajuana
TTITLE8=Soft Shoe
TTITLE9=I'll Take Romance
TTITLE10=Confab in Tempo
TTITLE11=Autum Nocturne
TTITLE12=I'll Walk Alone
TTITLE13=I've Never Been in Love Before
TTITLE14=Alone Together
TTITLE15=Gone With the Wind
TTITLE16=Pre Amp
EXTD=
EXTT0=
EXTT1=
EXTT2=
EXTT3=
EXTT4=
EXTT5=
EXTT6=
EXTT7=
EXTT8=
EXTT9=
EXTT10=
EXTT11=
EXTT12=
EXTT13=
EXTT14=
EXTT15=
EXTT16=
PLAYORDER=
